<svg width="20" height="20" viewBox="0 0 20 20" fill="none" xmlns="http://www.w3.org/2000/svg">
<path fill-rule="evenodd" clip-rule="evenodd" d="M5.15374 16.9519C5.86774 16.9519 6.44874 17.5319 6.44874 18.2459C6.44874 18.9599 5.86774 19.5409 5.15374 19.5409C4.43974 19.5409 3.85974 18.9599 3.85974 18.2459C3.85974 17.5319 4.43974 16.9519 5.15374 16.9519ZM16.434 16.9519C17.149 16.9519 17.73 17.5319 17.73 18.2459C17.73 18.9599 17.149 19.5409 16.434 19.5409C15.72 19.5409 15.14 18.9599 15.14 18.2459C15.14 17.5319 15.72 16.9519 16.434 16.9519ZM0.877945 0.00948704L2.95794 0.369487C3.29294 0.428487 3.54794 0.706487 3.57694 1.04649L3.81194 3.84749L4.68579 3.84786C4.82839 3.84793 4.96948 3.84799 5.10906 3.84805L6.71337 3.84882C6.84125 3.84888 6.9677 3.84894 7.09273 3.84901L8.86413 3.84998C8.97541 3.85004 9.08536 3.85011 9.19399 3.85018L10.4353 3.85097C10.5337 3.85103 10.6308 3.8511 10.7266 3.85117L11.8184 3.85197C11.9046 3.85204 11.9896 3.85211 12.0735 3.85217L13.0255 3.85299C13.1003 3.85306 13.1741 3.85313 13.2468 3.8532L13.8725 3.85382C13.9389 3.85389 14.0042 3.85396 14.0686 3.85403L14.7931 3.85487C14.8497 3.85494 14.9052 3.85501 14.9598 3.85508L15.5716 3.85594C15.619 3.85601 15.6656 3.85608 15.7113 3.85615L16.1001 3.8568C16.1409 3.85687 16.1808 3.85695 16.2199 3.85702L16.6531 3.8579C16.6862 3.85797 16.7186 3.85804 16.7503 3.85812L17.0168 3.85878C17.0444 3.85886 17.0713 3.85893 17.0976 3.85901L17.3834 3.85991C17.4048 3.85998 17.4257 3.86006 17.4459 3.86014L17.6137 3.86082C17.6308 3.8609 17.6473 3.86097 17.6634 3.86105L17.8331 3.86197C17.8454 3.86205 17.8573 3.86213 17.8688 3.86221L17.9613 3.86291C17.9704 3.86299 17.9792 3.86307 17.9876 3.86314L18.0542 3.86385C18.0606 3.86393 18.0668 3.86401 18.0726 3.86409L18.1179 3.86481C18.1222 3.86489 18.1262 3.86497 18.13 3.86505L18.1587 3.86578C18.1613 3.86586 18.1637 3.86594 18.166 3.86602L18.1868 3.867C18.1881 3.86708 18.1892 3.86716 18.1903 3.86725C18.2001 3.86815 18.2015 3.86832 18.2029 3.86849C18.7599 3.94949 19.2499 4.24049 19.5839 4.68849C19.9179 5.13549 20.0579 5.68649 19.9779 6.23849L19.0289 12.7965C18.8499 14.0445 17.7659 14.9855 16.5059 14.9855H5.58494C4.26794 14.9855 3.15294 13.9575 3.04594 12.6425L2.12994 1.74849L0.622945 1.48849C0.213945 1.41649 -0.0590549 1.02949 0.0109451 0.620487C0.082945 0.211487 0.477945 -0.054513 0.877945 0.00948704ZM4.48518 5.34783L3.93794 5.34749L4.54094 12.5195C4.58494 13.0715 5.03594 13.4855 5.58694 13.4855H16.5039C17.0249 13.4855 17.4699 13.0975 17.5439 12.5825L18.4939 6.02349C18.5159 5.86749 18.4769 5.71149 18.3819 5.58549C18.2879 5.45849 18.1499 5.37649 17.9939 5.35449C17.9867 5.35476 17.9695 5.35502 17.9426 5.35524L17.8339 5.35587C17.8111 5.35596 17.7861 5.35605 17.7588 5.35613L17.1923 5.35699C17.1445 5.35702 17.0948 5.35705 17.0433 5.35708L15.7113 5.35702C15.637 5.357 15.5613 5.35696 15.4842 5.35693L13.9641 5.35601C13.873 5.35594 13.781 5.35587 13.688 5.3558L12.8278 5.35511C12.7298 5.35503 12.6311 5.35495 12.5318 5.35486L11.6207 5.35406C11.5178 5.35397 11.4144 5.35387 11.3106 5.35378L10.683 5.3532C10.5777 5.35311 10.4721 5.35301 10.3662 5.35291L9.40854 5.35201C9.30175 5.35191 9.19491 5.35181 9.08805 5.35171L8.44741 5.35112C8.34079 5.35102 8.2343 5.35092 8.12798 5.35082L7.49278 5.35025C7.38744 5.35015 7.2824 5.35006 7.17773 5.34997L6.24722 5.34917C6.1453 5.34908 6.04392 5.349 5.94316 5.34892L4.76723 5.34802C4.67234 5.34795 4.5783 5.34789 4.48518 5.34783ZM14.8978 7.54379C15.3118 7.54379 15.6478 7.87979 15.6478 8.29379C15.6478 8.70779 15.3118 9.04379 14.8978 9.04379H12.1258C11.7108 9.04379 11.3758 8.70779 11.3758 8.29379C11.3758 7.87979 11.7108 7.54379 12.1258 7.54379H14.8978Z" fill="#3C3C3C"/>
</svg>
