<svg width="49" height="49" viewBox="0 0 49 49" fill="none" xmlns="http://www.w3.org/2000/svg">
<path fill-rule="evenodd" clip-rule="evenodd" d="M31.9181 4.1655C38.2061 4.1655 42.4301 8.4715 42.4301 14.8795V33.2715C42.4301 39.7355 38.3361 43.9395 32.0001 43.9795L16.6141 43.9855C10.3261 43.9855 6.1001 39.6795 6.1001 33.2715V14.8795C6.1001 8.4135 10.1941 4.2115 16.5301 4.1735L31.9161 4.1655H31.9181ZM31.9181 7.1655L16.5401 7.1735C11.8841 7.2015 9.1001 10.0815 9.1001 14.8795V33.2715C9.1001 38.1015 11.9101 40.9855 16.6121 40.9855L31.9901 40.9795C36.6461 40.9515 39.4301 38.0675 39.4301 33.2715V14.8795C39.4301 10.0495 36.6221 7.1655 31.9181 7.1655ZM31.5323 31.1129C32.3603 31.1129 33.0323 31.7849 33.0323 32.6129C33.0323 33.4409 32.3603 34.1129 31.5323 34.1129H17.0923C16.2643 34.1129 15.5923 33.4409 15.5923 32.6129C15.5923 31.7849 16.2643 31.1129 17.0923 31.1129H31.5323ZM31.5323 22.7399C32.3603 22.7399 33.0323 23.4119 33.0323 24.2399C33.0323 25.0679 32.3603 25.7399 31.5323 25.7399H17.0923C16.2643 25.7399 15.5923 25.0679 15.5923 24.2399C15.5923 23.4119 16.2643 22.7399 17.0923 22.7399H31.5323ZM22.6017 14.3863C23.4297 14.3863 24.1017 15.0583 24.1017 15.8863C24.1017 16.7143 23.4297 17.3863 22.6017 17.3863H17.0917C16.2637 17.3863 15.5917 16.7143 15.5917 15.8863C15.5917 15.0583 16.2637 14.3863 17.0917 14.3863H22.6017Z" fill="black"/>
</svg>
