<svg width="929" height="260" viewBox="0 0 929 260" fill="none" xmlns="http://www.w3.org/2000/svg">
<path d="M305.21 199.104V220.711H302.389V210.915H291.384V220.711H288.563V199.104H291.384V208.59H302.389V199.104H305.21ZM318.273 212.155C318.273 210.419 318.624 208.9 319.327 207.598C320.029 206.276 320.99 205.253 322.21 204.529C323.45 203.806 324.824 203.444 326.333 203.444C327.821 203.444 329.112 203.765 330.208 204.405C331.303 205.046 332.119 205.852 332.657 206.823V203.723H335.509V220.711H332.657V217.549C332.099 218.541 331.262 219.368 330.146 220.029C329.05 220.67 327.769 220.99 326.302 220.99C324.793 220.99 323.429 220.618 322.21 219.874C320.99 219.13 320.029 218.087 319.327 216.743C318.624 215.4 318.273 213.871 318.273 212.155ZM332.657 212.186C332.657 210.905 332.398 209.789 331.882 208.838C331.365 207.888 330.662 207.164 329.774 206.668C328.906 206.152 327.945 205.893 326.891 205.893C325.837 205.893 324.876 206.141 324.008 206.637C323.14 207.133 322.447 207.857 321.931 208.807C321.414 209.758 321.156 210.874 321.156 212.155C321.156 213.457 321.414 214.594 321.931 215.565C322.447 216.516 323.14 217.25 324.008 217.766C324.876 218.262 325.837 218.51 326.891 218.51C327.945 218.51 328.906 218.262 329.774 217.766C330.662 217.25 331.365 216.516 331.882 215.565C332.398 214.594 332.657 213.468 332.657 212.186ZM352.397 206.854C352.955 205.883 353.782 205.077 354.877 204.436C355.993 203.775 357.285 203.444 358.752 203.444C360.261 203.444 361.625 203.806 362.844 204.529C364.084 205.253 365.055 206.276 365.758 207.598C366.461 208.9 366.812 210.419 366.812 212.155C366.812 213.871 366.461 215.4 365.758 216.743C365.055 218.087 364.084 219.13 362.844 219.874C361.625 220.618 360.261 220.99 358.752 220.99C357.305 220.99 356.024 220.67 354.908 220.029C353.813 219.368 352.976 218.552 352.397 217.58V228.771H349.576V203.723H352.397V206.854ZM363.929 212.155C363.929 210.874 363.671 209.758 363.154 208.807C362.637 207.857 361.935 207.133 361.046 206.637C360.178 206.141 359.217 205.893 358.163 205.893C357.13 205.893 356.169 206.152 355.28 206.668C354.412 207.164 353.709 207.898 353.172 208.869C352.655 209.82 352.397 210.926 352.397 212.186C352.397 213.468 352.655 214.594 353.172 215.565C353.709 216.516 354.412 217.25 355.28 217.766C356.169 218.262 357.13 218.51 358.163 218.51C359.217 218.51 360.178 218.262 361.046 217.766C361.935 217.25 362.637 216.516 363.154 215.565C363.671 214.594 363.929 213.457 363.929 212.155ZM382.646 206.854C383.204 205.883 384.031 205.077 385.126 204.436C386.242 203.775 387.534 203.444 389.001 203.444C390.51 203.444 391.874 203.806 393.093 204.529C394.333 205.253 395.304 206.276 396.007 207.598C396.71 208.9 397.061 210.419 397.061 212.155C397.061 213.871 396.71 215.4 396.007 216.743C395.304 218.087 394.333 219.13 393.093 219.874C391.874 220.618 390.51 220.99 389.001 220.99C387.554 220.99 386.273 220.67 385.157 220.029C384.062 219.368 383.225 218.552 382.646 217.58V228.771H379.825V203.723H382.646V206.854ZM394.178 212.155C394.178 210.874 393.92 209.758 393.403 208.807C392.886 207.857 392.184 207.133 391.295 206.637C390.427 206.141 389.466 205.893 388.412 205.893C387.379 205.893 386.418 206.152 385.529 206.668C384.661 207.164 383.958 207.898 383.421 208.869C382.904 209.82 382.646 210.926 382.646 212.186C382.646 213.468 382.904 214.594 383.421 215.565C383.958 216.516 384.661 217.25 385.529 217.766C386.418 218.262 387.379 218.51 388.412 218.51C389.466 218.51 390.427 218.262 391.295 217.766C392.184 217.25 392.886 216.516 393.403 215.565C393.92 214.594 394.178 213.457 394.178 212.155ZM424.706 203.723L414.476 228.709H411.562L414.91 220.525L408.059 203.723H411.19L416.522 217.487L421.792 203.723H424.706ZM481.563 199.104L475.301 220.711H472.139L467.117 203.32L461.909 220.711L458.778 220.742L452.733 199.104H455.74L460.452 217.425L465.66 199.104H468.822L473.782 217.363L478.525 199.104H481.563ZM509.45 211.566C509.45 212.104 509.419 212.672 509.357 213.271H495.779C495.882 214.945 496.451 216.258 497.484 217.208C498.538 218.138 499.809 218.603 501.297 218.603C502.516 218.603 503.529 218.324 504.335 217.766C505.162 217.188 505.74 216.423 506.071 215.472H509.109C508.654 217.105 507.745 218.438 506.381 219.471C505.017 220.484 503.322 220.99 501.297 220.99C499.685 220.99 498.238 220.629 496.957 219.905C495.696 219.182 494.704 218.159 493.981 216.836C493.258 215.493 492.896 213.943 492.896 212.186C492.896 210.43 493.247 208.89 493.95 207.567C494.653 206.245 495.634 205.232 496.895 204.529C498.176 203.806 499.644 203.444 501.297 203.444C502.909 203.444 504.335 203.796 505.575 204.498C506.815 205.201 507.766 206.172 508.427 207.412C509.109 208.632 509.45 210.016 509.45 211.566ZM506.536 210.977C506.536 209.903 506.298 208.983 505.823 208.218C505.348 207.433 504.697 206.844 503.87 206.451C503.064 206.038 502.165 205.831 501.173 205.831C499.747 205.831 498.528 206.286 497.515 207.195C496.523 208.105 495.955 209.365 495.81 210.977H506.536ZM521.42 212.155C521.42 210.419 521.771 208.9 522.474 207.598C523.176 206.276 524.137 205.253 525.357 204.529C526.597 203.806 527.981 203.444 529.511 203.444C530.833 203.444 532.063 203.754 533.2 204.374C534.336 204.974 535.204 205.769 535.804 206.761V197.771H538.656V220.711H535.804V217.518C535.246 218.531 534.419 219.368 533.324 220.029C532.228 220.67 530.947 220.99 529.48 220.99C527.971 220.99 526.597 220.618 525.357 219.874C524.137 219.13 523.176 218.087 522.474 216.743C521.771 215.4 521.42 213.871 521.42 212.155ZM535.804 212.186C535.804 210.905 535.545 209.789 535.029 208.838C534.512 207.888 533.809 207.164 532.921 206.668C532.053 206.152 531.092 205.893 530.038 205.893C528.984 205.893 528.023 206.141 527.155 206.637C526.287 207.133 525.594 207.857 525.078 208.807C524.561 209.758 524.303 210.874 524.303 212.155C524.303 213.457 524.561 214.594 525.078 215.565C525.594 216.516 526.287 217.25 527.155 217.766C528.023 218.262 528.984 218.51 530.038 218.51C531.092 218.51 532.053 218.262 532.921 217.766C533.809 217.25 534.512 216.516 535.029 215.565C535.545 214.594 535.804 213.468 535.804 212.186ZM551.669 212.155C551.669 210.419 552.02 208.9 552.723 207.598C553.425 206.276 554.386 205.253 555.606 204.529C556.846 203.806 558.23 203.444 559.76 203.444C561.082 203.444 562.312 203.754 563.449 204.374C564.585 204.974 565.453 205.769 566.053 206.761V197.771H568.905V220.711H566.053V217.518C565.495 218.531 564.668 219.368 563.573 220.029C562.477 220.67 561.196 220.99 559.729 220.99C558.22 220.99 556.846 220.618 555.606 219.874C554.386 219.13 553.425 218.087 552.723 216.743C552.02 215.4 551.669 213.871 551.669 212.155ZM566.053 212.186C566.053 210.905 565.794 209.789 565.278 208.838C564.761 207.888 564.058 207.164 563.17 206.668C562.302 206.152 561.341 205.893 560.287 205.893C559.233 205.893 558.272 206.141 557.404 206.637C556.536 207.133 555.843 207.857 555.327 208.807C554.81 209.758 554.552 210.874 554.552 212.155C554.552 213.457 554.81 214.594 555.327 215.565C555.843 216.516 556.536 217.25 557.404 217.766C558.272 218.262 559.233 218.51 560.287 218.51C561.341 218.51 562.302 218.262 563.17 217.766C564.058 217.25 564.761 216.516 565.278 215.565C565.794 214.594 566.053 213.468 566.053 212.186ZM584.429 200.964C583.892 200.964 583.437 200.778 583.065 200.406C582.693 200.034 582.507 199.58 582.507 199.042C582.507 198.505 582.693 198.05 583.065 197.678C583.437 197.306 583.892 197.12 584.429 197.12C584.946 197.12 585.38 197.306 585.731 197.678C586.103 198.05 586.289 198.505 586.289 199.042C586.289 199.58 586.103 200.034 585.731 200.406C585.38 200.778 584.946 200.964 584.429 200.964ZM585.793 203.723V220.711H582.972V203.723H585.793ZM608.178 203.413C610.245 203.413 611.919 204.044 613.2 205.304C614.481 206.544 615.122 208.342 615.122 210.698V220.711H612.332V211.101C612.332 209.407 611.908 208.115 611.061 207.226C610.214 206.317 609.056 205.862 607.589 205.862C606.101 205.862 604.913 206.327 604.024 207.257C603.156 208.187 602.722 209.541 602.722 211.318V220.711H599.901V203.723H602.722V206.141C603.28 205.273 604.034 204.602 604.985 204.126C605.956 203.651 607.021 203.413 608.178 203.413ZM636.036 203.444C637.503 203.444 638.785 203.765 639.88 204.405C640.996 205.046 641.823 205.852 642.36 206.823V203.723H645.212V221.083C645.212 222.633 644.881 224.008 644.22 225.206C643.559 226.426 642.608 227.376 641.368 228.058C640.149 228.74 638.723 229.081 637.09 229.081C634.858 229.081 632.998 228.554 631.51 227.5C630.022 226.446 629.144 225.01 628.875 223.191H631.665C631.975 224.225 632.616 225.051 633.587 225.671C634.558 226.312 635.726 226.632 637.09 226.632C638.64 226.632 639.901 226.147 640.872 225.175C641.864 224.204 642.36 222.84 642.36 221.083V217.518C641.802 218.51 640.975 219.337 639.88 219.998C638.785 220.66 637.503 220.99 636.036 220.99C634.527 220.99 633.153 220.618 631.913 219.874C630.694 219.13 629.733 218.087 629.03 216.743C628.327 215.4 627.976 213.871 627.976 212.155C627.976 210.419 628.327 208.9 629.03 207.598C629.733 206.276 630.694 205.253 631.913 204.529C633.153 203.806 634.527 203.444 636.036 203.444ZM642.36 212.186C642.36 210.905 642.102 209.789 641.585 208.838C641.068 207.888 640.366 207.164 639.477 206.668C638.609 206.152 637.648 205.893 636.594 205.893C635.54 205.893 634.579 206.141 633.711 206.637C632.843 207.133 632.151 207.857 631.634 208.807C631.117 209.758 630.859 210.874 630.859 212.155C630.859 213.457 631.117 214.594 631.634 215.565C632.151 216.516 632.843 217.25 633.711 217.766C634.579 218.262 635.54 218.51 636.594 218.51C637.648 218.51 638.609 218.262 639.477 217.766C640.366 217.25 641.068 216.516 641.585 215.565C642.102 214.594 642.36 213.468 642.36 212.186ZM693.491 199.104V220.711H690.67V210.915H679.665V220.711H676.844V199.104H679.665V208.59H690.67V199.104H693.491ZM706.554 212.155C706.554 210.419 706.905 208.9 707.608 207.598C708.31 206.276 709.271 205.253 710.491 204.529C711.731 203.806 713.105 203.444 714.614 203.444C716.102 203.444 717.393 203.765 718.489 204.405C719.584 205.046 720.4 205.852 720.938 206.823V203.723H723.79V220.711H720.938V217.549C720.38 218.541 719.543 219.368 718.427 220.029C717.331 220.67 716.05 220.99 714.583 220.99C713.074 220.99 711.71 220.618 710.491 219.874C709.271 219.13 708.31 218.087 707.608 216.743C706.905 215.4 706.554 213.871 706.554 212.155ZM720.938 212.186C720.938 210.905 720.679 209.789 720.163 208.838C719.646 207.888 718.943 207.164 718.055 206.668C717.187 206.152 716.226 205.893 715.172 205.893C714.118 205.893 713.157 206.141 712.289 206.637C711.421 207.133 710.728 207.857 710.212 208.807C709.695 209.758 709.437 210.874 709.437 212.155C709.437 213.457 709.695 214.594 710.212 215.565C710.728 216.516 711.421 217.25 712.289 217.766C713.157 218.262 714.118 218.51 715.172 218.51C716.226 218.51 717.187 218.262 718.055 217.766C718.943 217.25 719.646 216.516 720.163 215.565C720.679 214.594 720.938 213.468 720.938 212.186ZM740.678 206.854C741.236 205.883 742.063 205.077 743.158 204.436C744.274 203.775 745.566 203.444 747.033 203.444C748.542 203.444 749.906 203.806 751.125 204.529C752.365 205.253 753.336 206.276 754.039 207.598C754.742 208.9 755.093 210.419 755.093 212.155C755.093 213.871 754.742 215.4 754.039 216.743C753.336 218.087 752.365 219.13 751.125 219.874C749.906 220.618 748.542 220.99 747.033 220.99C745.586 220.99 744.305 220.67 743.189 220.029C742.094 219.368 741.257 218.552 740.678 217.58V228.771H737.857V203.723H740.678V206.854ZM752.21 212.155C752.21 210.874 751.952 209.758 751.435 208.807C750.918 207.857 750.216 207.133 749.327 206.637C748.459 206.141 747.498 205.893 746.444 205.893C745.411 205.893 744.45 206.152 743.561 206.668C742.693 207.164 741.99 207.898 741.453 208.869C740.936 209.82 740.678 210.926 740.678 212.186C740.678 213.468 740.936 214.594 741.453 215.565C741.99 216.516 742.693 217.25 743.561 217.766C744.45 218.262 745.411 218.51 746.444 218.51C747.498 218.51 748.459 218.262 749.327 217.766C750.216 217.25 750.918 216.516 751.435 215.565C751.952 214.594 752.21 213.457 752.21 212.155ZM770.927 206.854C771.485 205.883 772.312 205.077 773.407 204.436C774.523 203.775 775.815 203.444 777.282 203.444C778.791 203.444 780.155 203.806 781.374 204.529C782.614 205.253 783.585 206.276 784.288 207.598C784.991 208.9 785.342 210.419 785.342 212.155C785.342 213.871 784.991 215.4 784.288 216.743C783.585 218.087 782.614 219.13 781.374 219.874C780.155 220.618 778.791 220.99 777.282 220.99C775.835 220.99 774.554 220.67 773.438 220.029C772.343 219.368 771.506 218.552 770.927 217.58V228.771H768.106V203.723H770.927V206.854ZM782.459 212.155C782.459 210.874 782.201 209.758 781.684 208.807C781.167 207.857 780.465 207.133 779.576 206.637C778.708 206.141 777.747 205.893 776.693 205.893C775.66 205.893 774.699 206.152 773.81 206.668C772.942 207.164 772.239 207.898 771.702 208.869C771.185 209.82 770.927 210.926 770.927 212.186C770.927 213.468 771.185 214.594 771.702 215.565C772.239 216.516 772.942 217.25 773.81 217.766C774.699 218.262 775.66 218.51 776.693 218.51C777.747 218.51 778.708 218.262 779.576 217.766C780.465 217.25 781.167 216.516 781.684 215.565C782.201 214.594 782.459 213.457 782.459 212.155ZM812.987 203.723L802.757 228.709H799.843L803.191 220.525L796.34 203.723H799.471L804.803 217.487L810.073 203.723H812.987ZM845.509 218.417H853.073V220.711H842.688V199.104H845.509V218.417ZM866.826 200.964C866.288 200.964 865.834 200.778 865.462 200.406C865.09 200.034 864.904 199.58 864.904 199.042C864.904 198.505 865.09 198.05 865.462 197.678C865.834 197.306 866.288 197.12 866.826 197.12C867.342 197.12 867.776 197.306 868.128 197.678C868.5 198.05 868.686 198.505 868.686 199.042C868.686 199.58 868.5 200.034 868.128 200.406C867.776 200.778 867.342 200.964 866.826 200.964ZM868.19 203.723V220.711H865.369V203.723H868.19ZM889.211 206.048H885.646V220.711H882.825V206.048H880.624V203.723H882.825V202.514C882.825 200.613 883.31 199.228 884.282 198.36C885.274 197.472 886.855 197.027 889.025 197.027V199.383C887.785 199.383 886.906 199.631 886.39 200.127C885.894 200.603 885.646 201.398 885.646 202.514V203.723H889.211V206.048ZM917.3 211.566C917.3 212.104 917.269 212.672 917.207 213.271H903.629C903.732 214.945 904.3 216.258 905.334 217.208C906.388 218.138 907.659 218.603 909.147 218.603C910.366 218.603 911.379 218.324 912.185 217.766C913.011 217.188 913.59 216.423 913.921 215.472H916.959C916.504 217.105 915.595 218.438 914.231 219.471C912.867 220.484 911.172 220.99 909.147 220.99C907.535 220.99 906.088 220.629 904.807 219.905C903.546 219.182 902.554 218.159 901.831 216.836C901.107 215.493 900.746 213.943 900.746 212.186C900.746 210.43 901.097 208.89 901.8 207.567C902.502 206.245 903.484 205.232 904.745 204.529C906.026 203.806 907.493 203.444 909.147 203.444C910.759 203.444 912.185 203.796 913.425 204.498C914.665 205.201 915.615 206.172 916.277 207.412C916.959 208.632 917.3 210.016 917.3 211.566ZM914.386 210.977C914.386 209.903 914.148 208.983 913.673 208.218C913.197 207.433 912.546 206.844 911.72 206.451C910.914 206.038 910.015 205.831 909.023 205.831C907.597 205.831 906.377 206.286 905.365 207.195C904.373 208.105 903.804 209.365 903.66 210.977H914.386Z" fill="#432E2D"/>
<path d="M374.646 75.9058C374.646 78.9304 374.472 82.1295 374.123 85.5031H297.693C298.275 94.9259 301.474 102.313 307.29 107.664C313.223 112.899 320.378 115.517 328.753 115.517C335.617 115.517 341.317 113.946 345.854 110.805C350.507 107.548 353.765 103.244 355.626 97.8924H372.727C370.167 107.083 365.049 114.586 357.371 120.402C349.693 126.103 340.154 128.953 328.753 128.953C319.68 128.953 311.536 126.917 304.324 122.845C297.228 118.774 291.644 113.015 287.572 105.57C283.501 98.0087 281.465 89.2839 281.465 79.3957C281.465 69.5076 283.442 60.8409 287.398 53.3957C291.353 45.9505 296.879 40.2503 303.975 36.2951C311.187 32.2235 319.447 30.1877 328.753 30.1877C337.827 30.1877 345.854 32.1653 352.834 36.1206C359.814 40.0758 365.165 45.5434 368.888 52.5233C372.727 59.3868 374.646 67.181 374.646 75.9058ZM358.243 72.5904C358.243 66.5411 356.906 61.3644 354.23 57.0602C351.554 52.6396 347.89 49.3241 343.237 47.1139C338.7 44.7872 333.639 43.6239 328.055 43.6239C320.029 43.6239 313.165 46.1832 307.465 51.3018C301.881 56.4203 298.682 63.5165 297.868 72.5904H358.243Z" fill="#432E2D"/>
<path d="M480.411 31.7581V127.382H464.532V113.248C461.508 118.134 457.262 121.973 451.794 124.765C446.443 127.44 440.51 128.778 433.995 128.778C426.55 128.778 419.861 127.266 413.928 124.241C407.995 121.1 403.284 116.447 399.794 110.282C396.42 104.116 394.734 96.6127 394.734 87.7716V31.7581H410.438V85.6776C410.438 95.1004 412.823 102.371 417.593 107.49C422.362 112.492 428.877 114.993 437.136 114.993C445.628 114.993 452.318 112.376 457.203 107.141C462.089 101.906 464.532 94.2861 464.532 84.2816V31.7581H480.411Z" fill="#432E2D"/>
<path d="M553.813 30.0132C565.446 30.0132 574.869 33.5613 582.082 40.6575C589.294 47.6373 592.9 57.7582 592.9 71.0199V127.382H577.196V73.2884C577.196 63.7492 574.811 56.4785 570.041 51.4763C565.272 46.3577 558.757 43.7984 550.498 43.7984C542.122 43.7984 535.433 46.4159 530.431 51.6508C525.545 56.8857 523.102 64.5054 523.102 74.5098V127.382H507.223V31.7581H523.102V45.3689C526.243 40.483 530.489 36.7022 535.84 34.0266C541.308 31.351 547.299 30.0132 553.813 30.0132Z" fill="#432E2D"/>
<path d="M660.544 128.953C651.586 128.953 643.443 126.917 636.114 122.845C628.902 118.774 623.202 113.015 619.014 105.57C614.942 98.0087 612.906 89.2839 612.906 79.3957C612.906 69.6239 615 61.0154 619.188 53.5702C623.492 46.0087 629.309 40.2503 636.638 36.2951C643.967 32.2235 652.168 30.1877 661.242 30.1877C670.316 30.1877 678.517 32.2235 685.846 36.2951C693.175 40.2503 698.933 45.9505 703.121 53.3957C707.425 60.8409 709.577 69.5076 709.577 79.3957C709.577 89.2839 707.367 98.0087 702.947 105.57C698.642 113.015 692.768 118.774 685.322 122.845C677.877 126.917 669.618 128.953 660.544 128.953ZM660.544 114.993C666.244 114.993 671.595 113.655 676.598 110.98C681.6 108.304 685.613 104.291 688.638 98.9394C691.779 93.5881 693.349 87.0736 693.349 79.3957C693.349 71.7179 691.837 65.2033 688.812 59.8521C685.788 54.5009 681.832 50.5456 676.947 47.9863C672.061 45.3107 666.768 43.9729 661.067 43.9729C655.251 43.9729 649.9 45.3107 645.014 47.9863C640.244 50.5456 636.405 54.5009 633.497 59.8521C630.589 65.2033 629.134 71.7179 629.134 79.3957C629.134 87.1899 630.53 93.7626 633.322 99.1139C636.231 104.465 640.07 108.479 644.839 111.154C649.609 113.713 654.844 114.993 660.544 114.993Z" fill="#432E2D"/>
<path d="M812.818 31.7581L755.234 172.402H738.831L757.677 126.335L719.113 31.7581H736.738L766.751 109.235L796.415 31.7581H812.818Z" fill="#432E2D"/>
<path d="M822.848 79.2212C822.848 69.4494 824.825 60.8991 828.78 53.5702C832.736 46.125 838.145 40.3667 845.009 36.2951C851.988 32.2235 859.724 30.1877 868.217 30.1877C876.593 30.1877 883.863 31.9908 890.029 35.5971C896.194 39.2033 900.789 43.7403 903.814 49.2078V31.7581H919.868V127.382H903.814V109.584C900.673 115.168 895.962 119.821 889.68 123.543C883.514 127.15 876.302 128.953 868.042 128.953C859.55 128.953 851.872 126.859 845.009 122.671C838.145 118.483 832.736 112.608 828.78 105.047C824.825 97.4852 822.848 88.8767 822.848 79.2212ZM903.814 79.3957C903.814 72.1832 902.36 65.9013 899.452 60.5501C896.543 55.1989 892.588 51.1273 887.586 48.3353C882.7 45.4271 877.29 43.9729 871.358 43.9729C865.425 43.9729 860.015 45.3689 855.129 48.1608C850.243 50.9528 846.346 55.0244 843.438 60.3756C840.53 65.7268 839.076 72.0087 839.076 79.2212C839.076 86.5501 840.53 92.9483 843.438 98.4159C846.346 103.767 850.243 107.897 855.129 110.805C860.015 113.597 865.425 114.993 871.358 114.993C877.29 114.993 882.7 113.597 887.586 110.805C892.588 107.897 896.543 103.767 899.452 98.4159C902.36 92.9483 903.814 86.6083 903.814 79.3957Z" fill="#432E2D"/>
<path d="M70.3276 204.113C29.0291 159.023 46.4213 78.4319 74.059 60.0147C82.2438 54.7457 91.5282 51.4423 101.191 50.3615C112.185 50.1342 123.06 52.6898 132.813 57.7921C143.38 57.7921 153.515 53.5765 160.987 46.0732C168.459 38.5699 172.657 28.3933 172.657 17.782V0H39.8439C29.2766 0 19.1422 4.21522 11.67 11.7185C4.19782 19.2218 0 29.3984 0 40.0097V219.99C0 230.602 4.19782 240.778 11.67 248.281C19.1422 255.785 29.2766 260 39.8439 260H190.492C201.059 260 211.193 255.785 218.666 248.281C226.138 240.778 230.336 230.602 230.336 219.99V202.208C178.286 247.362 106.061 243.234 70.3276 204.113Z" fill="#F7931E"/>
<path d="M167.516 92.4834V123.053C167.516 131.143 164.39 138.902 158.827 144.623C153.264 150.343 145.718 153.557 137.851 153.557C129.984 153.557 122.438 150.343 116.875 144.623C111.312 138.902 108.187 131.143 108.187 123.053C108.187 114.962 111.312 107.203 116.875 101.483C122.438 95.7619 129.984 92.548 137.851 92.548H167.516V92.4834Z" fill="#432E2D"/>
</svg>
