<svg width="23" height="25" viewBox="0 0 23 25" fill="none" xmlns="http://www.w3.org/2000/svg">
<g clip-path="url(#clip0_24917_330)">
<path d="M6.85738 19.6263C2.83052 15.2907 4.52637 7.54153 7.22122 5.77065C8.01928 5.26401 8.92457 4.94638 9.86674 4.84245C10.9388 4.8206 11.9991 5.06633 12.9501 5.55693C13.9805 5.55693 14.9686 5.15159 15.6972 4.43012C16.4258 3.70864 16.8351 2.73012 16.8351 1.70982V0H3.88503C2.85466 0 1.86648 0.40531 1.1379 1.12678C0.409313 1.84826 0 2.82678 0 3.84708V21.1529C0 22.1732 0.409313 23.1517 1.1379 23.8732C1.86648 24.5946 2.85466 25 3.88503 25H18.5741C19.6045 25 20.5927 24.5946 21.3212 23.8732C22.0498 23.1517 22.4592 22.1732 22.4592 21.1529V19.4431C17.3839 23.7849 10.3416 23.3879 6.85738 19.6263Z" fill="#F7931E"/>
<path d="M16.334 8.89258V11.8319C16.334 12.6098 16.0292 13.3559 15.4868 13.906C14.9443 14.456 14.2087 14.7651 13.4415 14.7651C12.6744 14.7651 11.9387 14.456 11.3962 13.906C10.8538 13.3559 10.5491 12.6098 10.5491 11.8319C10.5491 11.054 10.8538 10.308 11.3962 9.75788C11.9387 9.20781 12.6744 8.89879 13.4415 8.89879H16.334V8.89258Z" fill="#432E2D"/>
</g>
<defs>
<clipPath id="clip0_24917_330">
<rect width="22.4138" height="25" fill="white"/>
</clipPath>
</defs>
</svg>
