<svg width="21" height="20" viewBox="0 0 21 20" fill="none" xmlns="http://www.w3.org/2000/svg">
<path fill-rule="evenodd" clip-rule="evenodd" d="M5.27483 16.826C6.00561 16.826 6.60026 17.3792 6.60026 18.0601C6.60026 18.7411 6.00561 19.2952 5.27483 19.2952C4.54406 19.2952 3.95043 18.7411 3.95043 18.0601C3.95043 17.3792 4.54406 16.826 5.27483 16.826ZM16.8202 16.826C17.552 16.826 18.1466 17.3792 18.1466 18.0601C18.1466 18.7411 17.552 19.2952 16.8202 19.2952C16.0894 19.2952 15.4958 18.7411 15.4958 18.0601C15.4958 17.3792 16.0894 16.826 16.8202 16.826ZM0.898572 0.667983L3.02744 1.01132C3.37031 1.06759 3.6313 1.33272 3.66098 1.65697L3.90151 4.3283L4.79589 4.32866C4.94183 4.32872 5.08623 4.32878 5.2291 4.32884L6.8711 4.32957C7.00198 4.32963 7.1314 4.32969 7.25938 4.32975L9.07239 4.33068C9.18629 4.33074 9.29882 4.3308 9.41001 4.33086L10.6805 4.33162C10.7812 4.33168 10.8805 4.33175 10.9786 4.33181L12.0961 4.33258C12.1843 4.33264 12.2713 4.33271 12.3572 4.33277L13.3315 4.33355C13.4081 4.33362 13.4836 4.33368 13.5581 4.33375L14.1984 4.33434C14.2664 4.33441 14.3333 4.33447 14.3991 4.33454L15.1407 4.33534C15.1985 4.33541 15.2554 4.33548 15.3113 4.33554L15.9375 4.33636C15.986 4.33643 16.0337 4.33649 16.0804 4.33656L16.4784 4.33718C16.5201 4.33725 16.561 4.33732 16.601 4.33739L17.0443 4.33823C17.0782 4.3383 17.1114 4.33837 17.1438 4.33844L17.4166 4.33907C17.4449 4.33914 17.4724 4.33922 17.4993 4.33929L17.7918 4.34015C17.8137 4.34022 17.8351 4.34029 17.8558 4.34036L18.0276 4.34102C18.045 4.34109 18.0619 4.34116 18.0784 4.34123L18.2521 4.34212C18.2647 4.34219 18.2769 4.34226 18.2886 4.34234L18.3833 4.34301C18.3926 4.34308 18.4016 4.34316 18.4102 4.34323L18.4784 4.34391C18.4849 4.34399 18.4912 4.34406 18.4972 4.34414L18.5436 4.34482C18.548 4.3449 18.5521 4.34497 18.556 4.34505L18.5853 4.34574C18.588 4.34582 18.5905 4.3459 18.5928 4.34597L18.6141 4.34691C18.6154 4.34699 18.6166 4.34706 18.6177 4.34714C18.6277 4.34801 18.6291 4.34817 18.6306 4.34833C19.2007 4.42558 19.7022 4.70311 20.0441 5.13036C20.3859 5.55667 20.5292 6.08216 20.4473 6.60861L19.476 12.863C19.2928 14.0532 18.1834 14.9507 16.8937 14.9507H5.71616C4.36822 14.9507 3.22702 13.9702 3.11751 12.7161L2.17999 2.32647L0.637581 2.07851C0.218972 2.00985 -0.0604424 1.64076 0.0112022 1.2507C0.0848938 0.860632 0.489174 0.606946 0.898572 0.667983ZM4.59056 5.75918L4.03047 5.75886L4.64763 12.5988C4.69267 13.1253 5.15426 13.5201 5.71821 13.5201H16.8917C17.4249 13.5201 17.8804 13.1501 17.9561 12.6589L18.9285 6.40356C18.951 6.25478 18.9111 6.106 18.8138 5.98584C18.7176 5.86472 18.5764 5.78651 18.4167 5.76553C18.4093 5.7658 18.3917 5.76604 18.3642 5.76625L18.2529 5.76685C18.2296 5.76694 18.204 5.76702 18.1761 5.7671L17.5963 5.76792C17.5474 5.76795 17.4965 5.76798 17.4437 5.768L16.0805 5.76795C16.0044 5.76792 15.9269 5.76789 15.848 5.76786L14.2922 5.76698C14.199 5.76692 14.1047 5.76685 14.0096 5.76679L13.1292 5.76613C13.0289 5.76605 12.9279 5.76597 12.8262 5.76589L11.8937 5.76513C11.7884 5.76504 11.6826 5.76495 11.5763 5.76486L10.934 5.76431C10.8262 5.76421 10.7181 5.76412 10.6098 5.76403L9.62959 5.76317C9.5203 5.76308 9.41094 5.76298 9.30158 5.76289L8.64588 5.76232C8.53676 5.76223 8.42776 5.76213 8.31895 5.76204L7.66882 5.76149C7.56101 5.7614 7.4535 5.76131 7.34637 5.76122L6.394 5.76046C6.28968 5.76038 6.18592 5.7603 6.08279 5.76022L4.87924 5.75937C4.78211 5.7593 4.68587 5.75924 4.59056 5.75918ZM15.2479 7.85348C15.6716 7.85348 16.0155 8.17392 16.0155 8.56875C16.0155 8.96359 15.6716 9.28403 15.2479 9.28403H12.4107C11.986 9.28403 11.6431 8.96359 11.6431 8.56875C11.6431 8.17392 11.986 7.85348 12.4107 7.85348H15.2479Z" fill="#6B5F5E"/>
</svg>
