<svg width="49" height="49" viewBox="0 0 49 49" fill="none" xmlns="http://www.w3.org/2000/svg">
<path fill-rule="evenodd" clip-rule="evenodd" d="M24.2809 2.87831C30.0269 2.87831 35.4269 5.11231 39.4829 9.17031C47.8669 17.5543 47.8669 31.1943 39.4829 39.5783C35.3729 43.6903 29.8389 45.8663 24.2329 45.8663C21.1769 45.8663 18.1009 45.2203 15.2229 43.8883C14.3749 43.5483 13.5809 43.2283 13.0109 43.2283C12.3549 43.2323 11.4729 43.5363 10.6209 43.8303C8.87293 44.4303 6.69693 45.1783 5.08693 43.5743C3.48293 41.9683 4.22293 39.7983 4.81893 38.0523C5.11293 37.1923 5.41493 36.3043 5.41493 35.6323C5.41493 35.0803 5.14893 34.3763 4.74093 33.3623C0.994932 25.2723 2.72693 15.5223 9.08093 9.17231C13.1369 5.11431 18.5349 2.87831 24.2809 2.87831ZM24.2829 5.87831C19.3369 5.87831 14.6909 7.80231 11.2009 11.2943C5.73293 16.7583 4.24493 25.1483 7.49493 32.1743C7.96293 33.3323 8.41493 34.4603 8.41493 35.6323C8.41493 36.8023 8.01293 37.9803 7.65893 39.0203C7.36693 39.8763 6.92493 41.1683 7.20893 41.4523C7.48693 41.7403 8.78693 41.2863 9.64493 40.9923C10.6749 40.6403 11.8429 40.2363 13.0009 40.2283C14.1609 40.2283 15.2549 40.6683 16.4129 41.1343C23.5069 44.4143 31.8969 42.9223 37.3629 37.4583C44.5749 30.2423 44.5749 18.5043 37.3629 11.2923C33.8709 7.80031 29.2269 5.87831 24.2829 5.87831ZM32.1767 23.2037C33.2807 23.2037 34.1767 24.0977 34.1767 25.2037C34.1767 26.3097 33.2807 27.2037 32.1767 27.2037C31.0727 27.2037 30.1687 26.3097 30.1687 25.2037C30.1687 24.0977 31.0547 23.2037 32.1587 23.2037H32.1767ZM24.1591 23.2037C25.2631 23.2037 26.1591 24.0977 26.1591 25.2037C26.1591 26.3097 25.2631 27.2037 24.1591 27.2037C23.0551 27.2037 22.1511 26.3097 22.1511 25.2037C22.1511 24.0977 23.0351 23.2037 24.1411 23.2037H24.1591ZM16.1407 23.2037C17.2447 23.2037 18.1407 24.0977 18.1407 25.2037C18.1407 26.3097 17.2447 27.2037 16.1407 27.2037C15.0367 27.2037 14.1327 26.3097 14.1327 25.2037C14.1327 24.0977 15.0187 23.2037 16.1227 23.2037H16.1407Z" fill="black"/>
</svg>
