<svg width="25" height="25" viewBox="0 0 48 48" fill="none" xmlns="http://www.w3.org/2000/svg">
<path fill-rule="evenodd" clip-rule="evenodd" d="M32.605 4C35.821 4 38.595 5.074 40.625 7.108C42.747 9.232 43.911 12.322 43.907 15.81L43.9099 29.8028C43.9134 29.8566 43.914 29.9106 43.9118 29.9645L43.907 32.1C43.907 39.162 39.361 43.908 32.595 43.908H15.303C8.54298 43.908 4.00098 39.162 4.00098 32.1V15.808C4.00098 8.746 8.54298 4 15.303 4H32.605ZM33.1582 25.6646C31.9822 25.6646 30.6022 27.6106 29.3802 29.3286C27.7042 31.6886 25.9702 34.1306 23.3582 34.1306C21.5922 34.1306 19.9742 33.4506 18.5482 32.8486C16.2802 31.8926 15.2522 31.5866 14.2462 32.4146C12.2324 34.0741 10.2425 37.0959 9.32823 38.5829C10.7713 40.0707 12.8213 40.908 15.303 40.908H32.595C37.645 40.908 40.907 37.452 40.907 32.1L40.907 30.502L40.8609 30.4534C39.11 28.6495 36.0867 25.6646 33.1582 25.6646ZM32.605 7H15.303C10.261 7 7.00098 10.458 7.00098 15.808V32.1C7.00098 33.4372 7.20447 34.656 7.58842 35.7321C8.7458 33.9847 10.4938 31.6188 12.3402 30.0986C14.8442 28.0386 17.5402 29.1706 19.7122 30.0846C20.9902 30.6226 22.1982 31.1306 23.3582 31.1306C24.4222 31.1306 25.7562 29.2506 26.9362 27.5926C28.5742 25.2806 30.4342 22.6646 33.1582 22.6646C36.1476 22.6646 38.8552 24.5017 40.9091 26.3249L40.907 15.808C40.911 13.082 40.079 10.806 38.503 9.228C37.047 7.77 35.009 7 32.605 7ZM17.715 12.379C20.577 12.381 22.905 14.709 22.907 17.569C22.907 20.431 20.579 22.761 17.715 22.761C14.851 22.761 12.523 20.433 12.523 17.571C12.523 14.707 14.851 12.379 17.715 12.379ZM17.713 15.379C16.505 15.379 15.523 16.361 15.523 17.571C15.523 18.779 16.505 19.761 17.715 19.761C18.923 19.761 19.907 18.779 19.907 17.573C19.905 16.363 18.921 15.381 17.713 15.379Z" fill="black"/>
</svg>
