<svg width="61" height="61" viewBox="0 0 61 61" fill="none" xmlns="http://www.w3.org/2000/svg">
<g filter="url(#filter0_b_1_269)">
<circle cx="30.5" cy="30.5" r="30.5" fill="white" fill-opacity="0.3"/>
<circle cx="30.5" cy="30.5" r="30" stroke="white" stroke-opacity="0.7"/>
</g>
<g clip-path="url(#clip0_1_269)">
<path d="M38.3689 33.339C39.2115 31.9291 39.7705 30.1458 39.879 28.3814C39.9478 27.2489 39.6954 26.06 39.149 24.9421C38.2918 23.186 36.8193 22.1995 35.3969 21.2463C34.3353 20.5351 33.3321 19.8635 32.623 18.9041L32.4957 18.7331C32.0765 18.17 31.6031 17.5318 31.528 16.9958C31.4529 16.4535 30.9607 16.0677 30.4226 16.0989C29.8761 16.1365 29.4528 16.5891 29.4528 17.1376V35.7208C28.5789 35.191 27.5027 34.8657 26.3243 34.8657C23.4502 34.8657 21.1101 36.7365 21.1101 39.037C21.1101 41.3375 23.4502 43.2083 26.3243 43.2083C29.1983 43.2083 31.5384 41.3375 31.5384 39.037V26.8818C33.1047 27.4804 35.668 29.005 36.373 32.5652C36.2416 32.7592 36.1164 32.9677 35.9704 33.1346C35.5888 33.5663 35.6305 34.2254 36.0643 34.605C36.4939 34.9887 37.153 34.9428 37.5347 34.5111C37.8141 34.1941 38.0623 33.8228 38.3001 33.4349C38.3251 33.4057 38.3481 33.3744 38.3689 33.339Z" fill="#C2973D"/>
<rect x="16.9446" y="38.5715" width="36.7021" height="2.7676" transform="rotate(-34.4839 16.9446 38.5715)" fill="#C2973D"/>
</g>
<defs>
<filter id="filter0_b_1_269" x="-20" y="-20" width="101" height="101" filterUnits="userSpaceOnUse" color-interpolation-filters="sRGB">
<feFlood flood-opacity="0" result="BackgroundImageFix"/>
<feGaussianBlur in="BackgroundImageFix" stdDeviation="10"/>
<feComposite in2="SourceAlpha" operator="in" result="effect1_backgroundBlur_1_269"/>
<feBlend mode="normal" in="SourceGraphic" in2="effect1_backgroundBlur_1_269" result="shape"/>
</filter>
<clipPath id="clip0_1_269">
<rect width="27.1111" height="27.1111" fill="white" transform="translate(16.9446 16.0972)"/>
</clipPath>
</defs>
</svg>
