<svg width="49" height="49" viewBox="0 0 49 49" fill="none" xmlns="http://www.w3.org/2000/svg">
<path fill-rule="evenodd" clip-rule="evenodd" d="M24.479 4.5246C29.4276 4.5246 33.4626 8.53032 33.5165 13.4724L33.9548 13.4744C39.4788 13.4744 43.9708 17.9644 43.9708 23.4844V34.5164C43.9708 40.0344 39.4788 44.5244 33.9548 44.5244H14.9868C9.46483 44.5244 4.97083 40.0344 4.97083 34.5164V23.4844C4.97083 17.9644 9.46483 13.4744 14.9868 13.4744L15.3948 13.4726L15.4075 13.0836C15.5331 10.8147 16.4676 8.73326 18.071 7.1466C19.787 5.4446 22.091 4.5946 24.479 4.5246ZM33.9548 16.4744L33.5168 16.4726L33.517 19.6366C33.517 20.4646 32.845 21.1366 32.017 21.1366C31.189 21.1366 30.517 20.4646 30.517 19.6366L30.5168 16.4726H18.3928L18.393 19.6366C18.393 20.4646 17.721 21.1366 16.893 21.1366C16.065 21.1366 15.393 20.4646 15.393 19.6366L15.3928 16.4726L14.9868 16.4744C11.1188 16.4744 7.97083 19.6184 7.97083 23.4844V34.5164C7.97083 38.3804 11.1188 41.5244 14.9868 41.5244H33.9548C37.8228 41.5244 40.9708 38.3804 40.9708 34.5164V23.4844C40.9708 19.6184 37.8228 16.4744 33.9548 16.4744ZM24.473 7.5246C22.851 7.5806 21.331 8.1406 20.183 9.2766C19.0517 10.3981 18.4176 11.8847 18.3937 13.4724L30.5128 13.4726L30.5068 13.2179C30.3227 10.0482 27.688 7.5246 24.473 7.5246Z" fill="black"/>
</svg>
