<svg width="48" height="48" viewBox="0 0 48 48" fill="none" xmlns="http://www.w3.org/2000/svg">
<path d="M39.2422 28.3407C39.2422 36.0985 32.6477 42.5 24.3711 42.5C16.0945 42.5 9.5 36.0985 9.5 28.3407C9.5 20.5829 16.0945 14.1814 24.3711 14.1814C32.6477 14.1814 39.2422 20.5829 39.2422 28.3407Z" stroke="black" stroke-width="3"/>
<path d="M31.2047 8.31476C31.198 8.27587 31.1841 8.23779 31.1673 8.20114C31.1635 8.1932 31.1635 8.18512 31.1595 8.17707C31.159 8.17662 31.1583 8.17573 31.158 8.17528C31.158 8.17439 31.1575 8.17394 31.157 8.17338L29.6435 5.30807C29.64 5.30147 29.6335 5.29555 29.6295 5.28884C29.6242 5.28079 29.6224 5.27096 29.6166 5.26299C29.6051 5.24555 29.5893 5.23199 29.5757 5.21645C29.5619 5.20047 29.5494 5.18322 29.5341 5.16907C29.5115 5.14805 29.4856 5.13013 29.4593 5.11266C29.4428 5.10104 29.4272 5.08818 29.4091 5.07876C29.3785 5.06233 29.3454 5.05059 29.3118 5.03938C29.295 5.03368 29.2787 5.02496 29.2611 5.0206C29.2089 5.00749 29.1547 5 29.0985 5H24.3359H20.1787C20.1257 5 20.0744 5.00659 20.0245 5.01822C20.0071 5.02235 19.9911 5.03044 19.9739 5.03569C19.9433 5.04597 19.912 5.05495 19.8833 5.06959C19.8649 5.07902 19.8499 5.09161 19.8328 5.10193C19.8082 5.11747 19.7827 5.13233 19.7609 5.15115C19.7454 5.16467 19.7332 5.18065 19.7195 5.19589C19.7033 5.2128 19.6844 5.22811 19.6711 5.24734L17.6157 8.11273C17.6081 8.1239 17.6044 8.13657 17.5975 8.14842C17.5916 8.15781 17.5818 8.16585 17.5767 8.17614C17.5713 8.1869 17.571 8.19819 17.5659 8.20847C17.5549 8.23474 17.5461 8.26093 17.5392 8.28813C17.534 8.3097 17.5296 8.33082 17.5271 8.35209C17.5242 8.37892 17.5245 8.40567 17.526 8.43275C17.5279 8.45481 17.5296 8.47649 17.5335 8.49795C17.5389 8.52433 17.5482 8.54906 17.5576 8.57447C17.5662 8.59608 17.5738 8.61765 17.5853 8.63803C17.589 8.64507 17.5906 8.65312 17.5944 8.66038C17.6052 8.67827 17.6211 8.69227 17.6343 8.70837C17.6448 8.72234 17.6512 8.73702 17.6633 8.74953L23.8758 15.2918C23.9829 15.4046 24.1435 15.4847 24.3036 15.4806C24.3056 15.4806 24.3076 15.4815 24.309 15.4815C24.3179 15.482 24.3264 15.482 24.3355 15.482C24.3357 15.482 24.3357 15.482 24.3357 15.482C24.3357 15.482 24.3362 15.482 24.3367 15.482C24.3904 15.482 24.4431 15.473 24.4938 15.4609C24.5088 15.4567 24.5224 15.4525 24.5375 15.4473C24.5749 15.4357 24.6113 15.42 24.6459 15.4017C24.6574 15.3956 24.6697 15.3896 24.681 15.3829C24.7219 15.3576 24.7603 15.3285 24.7934 15.2934L31.0697 8.75121C31.0777 8.74272 31.0823 8.73243 31.0893 8.72346C31.0993 8.71217 31.1119 8.70278 31.1204 8.69C31.1294 8.67737 31.1339 8.66318 31.1415 8.64965C31.152 8.63233 31.162 8.61486 31.1698 8.59608C31.1816 8.56881 31.1897 8.54113 31.1967 8.51341C31.2012 8.4946 31.2063 8.47671 31.2082 8.45794C31.2123 8.42705 31.2108 8.39695 31.2082 8.36633C31.2067 8.34822 31.2077 8.33131 31.2047 8.31476Z" fill="black"/>
</svg>
