<svg width="34" height="37" viewBox="0 0 34 37" fill="none" xmlns="http://www.w3.org/2000/svg">
<g clip-path="url(#clip0_24315_430)">
<path d="M10.4021 29.047C4.29368 22.6302 6.86616 11.1615 10.954 8.54057C12.1646 7.79073 13.5379 7.32064 14.9671 7.16683C16.5933 7.13449 18.2018 7.49816 19.6443 8.22426C21.2073 8.22426 22.7063 7.62436 23.8115 6.55657C24.9167 5.48879 25.5376 4.04057 25.5376 2.53053V0H5.89329C4.3303 0 2.8313 0.599859 1.7261 1.66763C0.620897 2.73542 0 4.18363 0 5.69368V31.3062C0 32.8163 0.620897 34.2645 1.7261 35.3323C2.8313 36.4001 4.3303 37 5.89329 37H28.1754C29.7385 37 31.2375 36.4001 32.3427 35.3323C33.4478 34.2645 34.0688 32.8163 34.0688 31.3062V28.7758C26.37 35.2016 15.6874 34.6141 10.4021 29.047Z" fill="#F7931E"/>
<path d="M24.7773 13.1611V17.5114C24.7773 18.6627 24.3149 19.7668 23.4921 20.5809C22.6692 21.395 21.5533 21.8524 20.3896 21.8524C19.2259 21.8524 18.1099 21.395 17.287 20.5809C16.4642 19.7668 16.002 18.6627 16.002 17.5114C16.002 16.36 16.4642 15.2559 17.287 14.4418C18.1099 13.6277 19.2259 13.1703 20.3896 13.1703H24.7773V13.1611Z" fill="#432E2D"/>
</g>
<defs>
<clipPath id="clip0_24315_430">
<rect width="34" height="37" fill="white"/>
</clipPath>
</defs>
</svg>
