<svg width="49" height="48" viewBox="0 0 49 48" fill="none" xmlns="http://www.w3.org/2000/svg">
<path fill-rule="evenodd" clip-rule="evenodd" d="M28.0937 30.5825C30.5017 30.5825 32.4617 32.5285 32.4617 34.9205V41.0725C32.4617 41.5865 32.8737 41.9985 33.4017 42.0105H37.2137C40.2177 42.0105 42.6597 39.5985 42.6597 36.6345V19.1865C42.6457 18.1665 42.1597 17.2065 41.3257 16.5685L28.1397 6.0525C26.3697 4.6505 23.8937 4.6505 22.1177 6.0565L9.02167 16.5645C8.15567 17.2225 7.66967 18.1825 7.65967 19.2205V36.6345C7.65967 39.5985 10.1017 42.0105 13.1057 42.0105H16.9537C17.4957 42.0105 17.9357 41.5805 17.9357 41.0525C17.9357 40.9365 17.9497 40.8205 17.9737 40.7105V34.9205C17.9737 32.5425 19.9217 30.5985 22.3117 30.5825H28.0937ZM37.2137 45.0105H33.3657C31.1617 44.9585 29.4617 43.2285 29.4617 41.0725V34.9205C29.4617 34.1825 28.8477 33.5825 28.0937 33.5825H22.3217C21.5837 33.5865 20.9737 34.1885 20.9737 34.9205V41.0525C20.9737 41.2025 20.9537 41.3465 20.9117 41.4825C20.6957 43.4625 19.0037 45.0105 16.9537 45.0105H13.1057C8.44767 45.0105 4.65967 41.2525 4.65967 36.6345V19.2065C4.67967 17.2185 5.59567 15.3985 7.17767 14.2005L20.2477 3.7105C23.1257 1.4305 27.1357 1.4305 30.0077 3.7065L43.1717 14.2065C44.7177 15.3845 45.6337 17.2005 45.6597 19.1645V36.6345C45.6597 41.2525 41.8717 45.0105 37.2137 45.0105Z" fill="black"/>
</svg>
